# xmcd
# 
# Track frame offsets:
#     150
#     29108
#     44447
#     69339
#     100142
#     114625
#     127450
#     142709
#     157388
#     180146
# 
# Disc length: 2804
# 
# Revision: 2
# Processed by: cddbd v1.5.2PL0 Copyright (c) Steve Scherf et al.
# Submitted via: fre:ac v1.1beta1pre5
# 
DISCID=8f0af20a
DTITLE=Compilations - Healing Jazz -Disc 1-
DYEAR=0
DGENRE=Jazz
TTITLE0=朝日のようにさわやかに/MJQ
TTITLE1=黒いオルフェ(カーニバルの朝)/ジョニー・ソマーズ
TTITLE2=いそしぎ/エディ・ハリス
TTITLE3=アイ・カヴァー・ザ・ウォーターフロント/ジョン・ルイス
TTITLE4=サマータイム/クリス・コナー&メイナード/ファーガソン
TTITLE5=バット・ビューティフル/ベン・ウェブスター
TTITLE6=ニューヨークの秋/メイ・トーメ
TTITLE7=オー・ジー/アイラ・サリヴァン
TTITLE8=モーニン/マーティ・ペイチ
TTITLE9=枯葉/ジョン・ルイス
EXTD=
EXTT0=
EXTT1=
EXTT2=
EXTT3=
EXTT4=
EXTT5=
EXTT6=
EXTT7=
EXTT8=
EXTT9=
PLAYORDER=
